<?xml version="1.0" standalone="no"?>
<!DOCTYPE svg PUBLIC "-//W3C//DTD SVG 20010904//EN"
 "http://www.w3.org/TR/2001/REC-SVG-20010904/DTD/svg10.dtd">
<svg version="1.0" xmlns="http://www.w3.org/2000/svg"
 width="210.000000pt" height="210.000000pt" viewBox="0 0 210.000000 210.000000"
 preserveAspectRatio="xMidYMid meet">
<metadata>
Created by potrace 1.14, written by Peter Selinger 2001-2017
</metadata>
<g transform="translate(0.000000,210.000000) scale(0.100000,-0.100000)"
fill="#000000" stroke="none">
<path d="M893 1791 c-224 -61 -413 -244 -490 -476 -24 -71 -27 -96 -27 -225
-1 -164 15 -237 82 -363 71 -137 245 -289 383 -336 211 -71 439 -41 555 74
l50 50 55 -57 c59 -62 83 -71 93 -35 3 12 6 112 6 222 0 110 4 206 9 214 5 8
32 16 65 19 55 4 56 5 56 37 l0 32 -285 -1 -285 -1 0 -31 0 -31 107 -5 c140
-6 143 -10 143 -152 0 -55 -5 -119 -11 -141 -31 -113 -210 -186 -379 -155 -85
15 -206 79 -269 141 -59 58 -112 160 -142 274 -31 115 -31 365 0 480 49 186
138 301 288 373 75 36 82 37 188 37 100 0 115 -3 167 -28 71 -35 155 -118 195
-194 31 -58 66 -164 78 -235 5 -34 9 -38 34 -38 17 0 31 7 35 16 8 20 8 518 0
538 -13 33 -43 16 -85 -46 -72 -108 -62 -104 -138 -46 -111 85 -157 102 -291
105 -89 2 -131 -2 -187 -16z"/>
</g>
</svg>
